<svg width="20" height="20" viewBox="0 0 20 20" fill="none" xmlns="http://www.w3.org/2000/svg">
<path d="M17.5584 4.35832C16.2167 4.22499 14.875 4.12499 13.525 4.04999V4.04166L13.3417 2.95832C13.2167 2.19166 13.0334 1.04166 11.0834 1.04166H8.90005C6.95838 1.04166 6.77505 2.14166 6.64172 2.94999L6.46672 4.01666C5.69172 4.06666 4.91672 4.11666 4.14172 4.19166L2.44172 4.35832C2.09172 4.39166 1.84172 4.69999 1.87505 5.04166C1.90838 5.38332 2.20838 5.63332 2.55838 5.59999L4.25838 5.43332C8.62505 4.99999 13.0251 5.16666 17.4417 5.60832C17.4667 5.60832 17.4834 5.60832 17.5084 5.60832C17.8251 5.60832 18.1001 5.36666 18.1334 5.04166C18.1584 4.69999 17.9084 4.39166 17.5584 4.35832Z" fill="#FF2E12"/>
<path d="M16.0254 6.78334C15.8254 6.57501 15.5504 6.45834 15.2671 6.45834H4.73378C4.45044 6.45834 4.16711 6.57501 3.97544 6.78334C3.78378 6.99168 3.67544 7.27501 3.69211 7.56668L4.20878 16.1167C4.30044 17.3833 4.41711 18.9667 7.32544 18.9667H12.6754C15.5838 18.9667 15.7004 17.3917 15.7921 16.1167L16.3088 7.57501C16.3254 7.27501 16.2171 6.99168 16.0254 6.78334ZM11.3838 14.7917H8.60878C8.26711 14.7917 7.98378 14.5083 7.98378 14.1667C7.98378 13.825 8.26711 13.5417 8.60878 13.5417H11.3838C11.7254 13.5417 12.0088 13.825 12.0088 14.1667C12.0088 14.5083 11.7254 14.7917 11.3838 14.7917ZM12.0838 11.4583H7.91711C7.57544 11.4583 7.29211 11.175 7.29211 10.8333C7.29211 10.4917 7.57544 10.2083 7.91711 10.2083H12.0838C12.4254 10.2083 12.7088 10.4917 12.7088 10.8333C12.7088 11.175 12.4254 11.4583 12.0838 11.4583Z" fill="#FF2E12"/>
</svg>
